<?xml version="1.0" encoding="utf-8"?>
<!-- Generator: Adobe Illustrator 25.0.0, SVG Export Plug-In . SVG Version: 6.00 Build 0)  -->
<svg version="1.1" id="Camada_1" xmlns="http://www.w3.org/2000/svg" xmlns:xlink="http://www.w3.org/1999/xlink" x="0px" y="0px"
	 viewBox="0 0 1000 1000" style="enable-background:new 0 0 1000 1000;" xml:space="preserve">
<style type="text/css">
	.st0{fill:#FAF5F8;}
	.st1{fill:#DA91BA;}
	.st2{fill:#6FBA7C;}
	.st3{fill:#2C2C2C;}
	.st4{opacity:0.4;}
	.st5{fill:#3A3A5B;}
	.st6{fill:#87AEDD;}
	.st7{fill:#7795CD;}
	.st8{fill:#F4B2A3;}
	.st9{fill:#FABA15;}
	.st10{fill:#E98B93;}
	.st11{fill:#F9B865;}
	.st12{fill:#D59B18;}
	.st13{fill:#FFFFFF;}
	.st14{fill:#F8CABF;}
	.st15{fill:#CB3088;}
	.st16{fill:#EBF0F8;}
	.st17{fill:#CDD0EA;}
	.st18{fill:#A82375;}
	.st19{fill:#9B5265;}
	.st20{fill:#765D63;}
	.st21{fill:#8B7178;}
	.st22{fill:#E6334D;}
	.st23{fill:#E94E69;}
	.st24{fill:#D28D3D;}
	.st25{fill:#FCCF87;}
	.st26{fill:#AE6E1F;}
</style>
<g>
	<g>
		<path class="st0" d="M227.06,763.65c0,0-218.36-162.73-89.45-327.18c99.46-126.89,264.12-33.23,302.45-47.17
			c38.33-13.94,120.88-174.34,284.23-123.81c202.23,62.56,121.02,344.16,51.3,497.76L227.06,763.65z"/>
		<path class="st1" d="M276.36,763.65c0,0-182.96-136.34-74.95-274.14c83.34-106.32,221.3-27.84,253.42-39.52
			c32.12-11.68,101.28-146.08,238.15-103.74c169.45,52.42,101.4,288.37,42.98,417.06L276.36,763.65z"/>
		<path class="st2" d="M219.54,761.16c-2-3.15-8.03-11.31-16.05-10.23c-8.74,1.18,9.66,6.94,15.29,10.25
			c-1.25,0.02-2.33-0.08-3.12-0.36c-3.77-1.34-10.22,1.23-12.28,2.14h35.86c-0.25-0.86-0.89-2.26-2.56-3.28
			c-0.59-0.36-1.77-0.41-3.3-0.29c2.13-2.51,3.61-10.54-2.32-8.48c-4.34,1.51-4.32,6.42-3.9,9.32c-0.92,0.14-1.86,0.29-2.78,0.42
			c-1.79-9.1-8.1-35.77-20.9-36.48c-12.98-0.72,11,27.66,18.99,36.73C221.44,761.03,220.45,761.12,219.54,761.16z"/>
		<path class="st3" d="M964.1,766.27H55.41c-0.32,0-0.58-0.26-0.58-0.58v-1.55c0-0.32,0.26-0.58,0.58-0.58H964.1
			c0.32,0,0.58,0.26,0.58,0.58v1.55C964.68,766.01,964.42,766.27,964.1,766.27z"/>
		<g class="st4">
			<g>
				<g>
					<path class="st5" d="M318.78,364.31c-0.18-0.97-2.55-11.4-19.21-9.62c0,0,8.3-0.2,10.23,3.07c0,0-6.2-3.51-10.51-1.49
						c-4.32,2.01-5.82,10.05-5.47,12.58c0.35,2.53,4.08,10.3,7.06,10.59c1.13,0.11,2.37-0.14,3.48-0.48
						c-0.59,1.26-1.15,2.64-1.65,4.16c-4.65,14.07,4.11,25.96,9.49,23.76c3.46-1.41,5.36,4.38,5.36,4.38l30.8-32.25
						C348.36,378.99,331.69,355.12,318.78,364.31z"/>
				</g>
				<g>
					<path class="st5" d="M358.91,752.7l-7.49,2.7c0,0-32.54-43.67-36.55-82.1c-0.72-6.86-0.48-13.51,1.07-19.64
						c0,0-0.32-1.76-0.87-4.87c-0.26-1.45-0.58-3.2-0.94-5.2c-1.06-5.87-2.51-13.89-4.18-23.03c-3.83-21.03-8.79-47.91-12.64-67.68
						l2.02-0.63l21.84-6.82l4.51-13.87l16.26-4.14c0,0,3.63,6.88,6.88,39.37c0.6,4.26,1.14,8.96,1.55,14.06
						c1.27,15.55,1.36,34.85-1.55,56.91c-0.75,5.65-1.69,11.48-2.86,17.47c-0.86,4.39-0.98,10.38-0.62,17.25
						C347,703.89,358.91,752.7,358.91,752.7z"/>
				</g>
				<g>
					<path class="st5" d="M350.39,580.85l-35.32,67.94c-0.26-1.45-0.58-3.2-0.94-5.2c-1.06-5.87-2.51-13.89-4.18-23.03
						c-3.83-21.03-8.79-47.91-12.64-67.68l2.02-0.63l21.84-6.82l4.51-13.87l16.26-4.14c0,0,3.63,6.88,6.88,39.37
						C349.43,571.05,349.98,575.75,350.39,580.85z"/>
				</g>
				<g>
					<path class="st5" d="M334.85,536.15c0,0-0.01,0.06-0.04,0.16c-0.11,0.45-0.46,1.82-0.95,3.79c-2.35,9.35-8.08,32.05-8.43,32.03
						c-3.15,21.29-7.88,48.87-13.77,70.06c-3.11,11.21-6.54,20.64-10.23,26.41c-1.27,1.98-2.65,5.3-4.09,9.51
						c-8.5,24.86-18.95,81.13-18.95,81.13l-4.77,1.86c0,0-18.38-50.57-2.45-91.63c1.62-4.18,3.6-8.26,5.99-12.19
						c0.27-0.45,0.46-0.95,0.4-1.47c0-0.01,0-0.01,0-0.02c-0.21-1.71-0.72-5.99-1.31-12.01c-1.62-16.61-3.18-72.72-4.03-85.93
						c-0.32-5-0.13-9.46,0.4-13.41c1.02-7.71,3.32-13.48,5.56-17.51c2.83-5.09,5.58-7.42,5.58-7.42s36.6,13.36,50.3,9.84
						L334.85,536.15z"/>
				</g>
				<g>
					<path class="st5" d="M334.81,539.5c-0.29,0.21-0.61,0.4-0.95,0.6c-12.62,7.14-56.9,4.63-61.25,4.36
						c1.02-7.71,3.32-13.48,5.56-17.51c18.94,1.63,50.33,4.93,56.65,9.36C336.25,537.32,336.39,538.38,334.81,539.5z"/>
				</g>
				<g>
					<path class="st5" d="M405.44,525.02l-2.22,6.36c0,0-0.45-0.08-1.22-0.27c-2.42-0.59-8.33-1.96-14.96-3.83
						c-9.97-2.74-21.71-6.57-25.97-10.27c-6.51-5.59-16.04-20.92-21.39-35.51c-0.16-0.36-0.27-0.71-0.38-1.07
						c-2.77-7.73-4.31-15.19-3.5-20.79c0.47-3.43,1.4-6.28,2.6-8.69c1.57-3.18,3.63-5.56,5.62-7.27c0.28-0.29,0.57-0.57,0.95-0.78
						c3.25-2.61,5.76-4.29,5.76-4.29c1.44-0.31,3.13,1.44,4.34,3.26c0,0,1.97,3.63,2.81,6.23c0.05,0.06,0.09,0.13,0.08,0.18
						c0.19,0.53,0.37,1.12,0.59,1.77c0.09,0.13,0.12,0.3,0.15,0.42c0.38,1.35,0.75,2.75,1.12,4.21
						c4.17,15.67,7.39,38.86,12.26,46.46c2.1,3.27,13.07,10.86,21.85,16.63C400.27,521.89,405.44,525.02,405.44,525.02z"/>
				</g>
				<g>
					<path class="st5" d="M346.74,453.8c-3.97,2.51-8.91,4.53-15.08,5.73c-23.12,4.51-31.38-14.52-34.31-27.5
						c3.18-1.65,6.14-1.95,7.85-2.1c1.67-0.14,3.42-0.22,4.86-0.25c2.63-1.84,6.71-9.56,7.91-21.69l1.07,0.31l17.96,5.29
						c0,0-0.99,5.55-1.55,10.8c-0.43,4.11-0.6,8.04,0.18,9.03c1.4,0.33,2.25,0.55,2.25,0.55s0,0.01,0.01,0.02
						C338.13,434.38,343.14,442.88,346.74,453.8z"/>
				</g>
				<g>
					<path class="st5" d="M354.79,467.78c-0.11,0.48-0.24,0.94-0.38,1.42c-4.06,13.13-7.34,65.62-7.34,65.62
						c2.93,8.94-71.42,8.19-72.86-0.12c-3.89-8.49,5.63-24.33,11.13-32.38c0.69-1.01,1.28-2.08,1.77-3.18
						c1.24-2.77,1.84-5.78,1.72-8.83c-0.48-12.01-2.64-23.02-3.54-29.77c0,0,0,0,0,0c1.15-1.1,2.26-2.12,3.29-3.09
						c1.58-1.5,2.97-2.88,3.94-4.23c1.07-1.47,1.67-2.9,1.53-4.4c-0.1-1.13-0.31-2.28-0.61-3.42c-0.14-0.54-0.29-1.07-0.46-1.6
						c-1.77-5.6-5.01-10.44-5.01-10.44c5.89-3.33,17.22-3.43,17.22-3.43s0.08,0.6,0.22,1.58c0.55,3.94,2.1,14.02,3.69,15.75
						c1.99,2.15,33.34,8.39,34.43,4.94c1.07-3.39-5.4-17.67-5.64-18.21c-0.01-0.01-0.01-0.02-0.01-0.02
						c10.54,2.39,14.59,5.07,14.59,5.07C347.03,443.66,357.65,455.2,354.79,467.78z"/>
				</g>
				<g>
					<path class="st5" d="M337.01,413.59c0,0-0.99,5.54-1.55,10.8c-10.23-1.27-14.71-10.85-16.41-16.09L337.01,413.59z"/>
				</g>
				<g>
					<path class="st5" d="M339.92,418.91c0,0-24.31-1.96-22.81-16.59c1.5-14.63-0.63-24.73,14.95-24.1
						c15.58,0.64,18.02,6.51,18.75,11.51C351.54,394.72,346.29,419.04,339.92,418.91z"/>
				</g>
				<g>
					<path class="st5" d="M350.93,381.52c-3.3-4.76-6.23-4.07-7.96-2.9c-12.53-8.34-22.16,1.26-22.16,1.26
						c-2.71,10.34-11.15,15.59-11.15,15.59s4.15,3.07,14.61,1.52c3.19-0.47,6.2-2.35,8.83-4.71c-4.82,6.29-10.93,10.57-10.93,10.57
						c12.74-4.27,19.33-20.19,20-21.87c1.35,1.43,3.98,4.51,4.59,7.34c0.82,3.84,0.57,11.56,2.91,11.53
						C349.66,399.84,355.88,388.66,350.93,381.52z"/>
				</g>
				<g>
					<path class="st5" d="M324.93,520.45c-14.36,1.87-28.67-10.84-37.81-21.31c1.24-2.77,1.84-5.78,1.72-8.83
						c-0.48-12.01-2.64-23.02-3.54-29.77c0,0,0,0,0,0c1.15-1.1,2.26-2.12,3.29-3.09c1.58-1.5,2.97-2.88,3.94-4.23
						C307.15,470.78,344.4,517.92,324.93,520.45z"/>
				</g>
				<g>
					<g>
						<path class="st5" d="M375.03,525.21l2.54,8.34c0,0-6.41-1.41-10.43-1.79c-1.21-0.12-1.9-0.22-1.9-0.22
							c-3.22-0.34-7.08-0.84-11.28-1.37l-0.06,0c-7.21-1.05-15.29-2.35-22.15-3.98c-4.83-1.19-9.05-2.54-11.97-4
							c-0.3-0.14-0.54-0.29-0.84-0.48c-7.03-4.09-16.1-17.09-23.52-31.23c-1.03-1.95-2-3.91-2.97-5.81
							c-3.48-7.09-6.39-14.11-8.3-20.23c-1.18-3.64-2.05-6.99-2.41-9.76c-0.14-0.98-0.28-1.9-0.31-2.79c-0.04-0.5-0.07-1-0.1-1.48
							c2.84-2.41,9.39-6.9,18.32-6.43c0.19,0.31,0.37,0.62,0.56,0.94c3.85,6.78,8.06,15.62,12.04,24.43
							c2.2,4.83,4.34,9.66,6.44,14.11c1.21,2.71,2.41,5.25,3.53,7.58c2.16,4.44,4.08,8.03,5.7,10.26c1.04,1.46,3.83,3.37,7.49,5.49
							c6.36,3.71,15.58,8.05,23.57,11.57c3.32,1.48,6.46,2.82,9.06,3.92C372.26,524.07,375.03,525.21,375.03,525.21z"/>
					</g>
					<g>
						<path class="st5" d="M300.55,445.02c-11.13-1.99-19.13,6.86-19.13,6.86c-1.28-15.84,6.66-18.69,6.66-18.69
							C291.24,431.61,295.87,436.85,300.55,445.02z"/>
					</g>
				</g>
				<g>
					<path class="st5" d="M301.34,764.87h-37.73c0,0-0.9-5.56,1.07-9.79c1.89-4.05,4.85-5.89,4.14-10.79
						c2.4,2.39,6.31,5.06,11.76,4.35c0.67,1.05,4.31,6.66,6.55,8.21C289.58,758.57,300.58,757.96,301.34,764.87z"/>
				</g>
				<g>
					<path class="st5" d="M382.36,764.87h-37.73c0,0-1.41-5.82,1.07-9.79c2.19-3.51,1.35-5.5-0.27-8.4
						c1.71,0.68,3.92,1.29,6.36,1.16c1.88-0.11,3.87-0.93,5.61-1.91c1.62,1.79,8.58,9.42,10.75,10.93
						C370.6,758.57,381.6,757.96,382.36,764.87z"/>
				</g>
				<path class="st5" d="M334.13,410.45c0,0,0.34,1.94,5.26,1.94c0,0,4.13,0,4.15-2.1C343.54,410.29,339.64,408.55,334.13,410.45z"
					/>
			</g>
		</g>
		<g class="st4">
			<g>
				<g>
					<path class="st5" d="M382.03,541.52c0,0-17.84-22.35-26.52-29.29c0,0-11.87-28.33-12.84-30.2c-0.05-0.09-0.11-0.16-0.17-0.23
						c-0.13-0.66-0.53-3.03-0.09-5.21c0.52-2.56-1.16-8.69-2.31-8.14c-1.15,0.55-0.21,2.7-1.61,2.67c-1.41-0.03-4.88-6.91-6.53-5.95
						c-1.65,0.95-2.5,3.61-1.01,8.78c1.24,4.31,3.84,8.35,4.67,9.59c-0.05,0.03-0.08,0.04-0.08,0.04s4.36,27.54,8.96,35.71
						c4.6,8.16,18.86,35.57,28.93,36.58C383.49,556.89,382.03,541.52,382.03,541.52z"/>
				</g>
				<g>
					<path class="st5" d="M460.71,471.59c-1.6-0.59-3.56,5.94-4.79,6.17c-1.23,0.24-0.74-1.78-1.83-2.1c-1.1-0.32-1.6,5.3-0.74,7.47
						c0.86,2.16,0.74,4.74,0.74,4.74s-7.3,27.29-8.87,30.34c-1.57,3.05-27.3,25.27-27.3,25.27l5.66,17.69c0,0,30.31-27.1,32.9-33.48
						c2.58-6.37,3.75-39.09,3.75-39.09s2.27-4.72,2.76-9.47C463.46,474.39,462.3,472.19,460.71,471.59z"/>
				</g>
				<g>
					<path class="st5" d="M416.71,538.32l-12.18,15.42l-11.2-18.27c0,0,2.46-4.49,3.58-11.85c0.47-3.09,0.7-6.69,0.4-10.68
						l15.75,7.8c0,0-0.38,1.41-0.63,3.49c-0.27,2.25-0.39,5.28,0.27,8.15C413.27,534.85,414.59,536.65,416.71,538.32z"/>
				</g>
				<g>
					<path class="st5" d="M435.9,751.81c0,0,2.01,3.81,6.48,4.75c2.81,0.59,5.22,2.01,6.72,3.99c1.27,1.68,0.04,4.04-2.11,4.04
						h-22.66c-1.93,0-3.44-1.61-3.24-3.47c0.17-1.62,0.35-3.52,0.42-4.97c0.17-3.17,3.45-5.72,3.45-5.72L435.9,751.81z"/>
				</g>
				<g>
					<path class="st5" d="M436.44,752.76c0,0-5.44,3.11-14.64,1.23c0,0-15.64-38.7-16.57-56.91c-0.04-0.73-0.05-1.43-0.04-2.09
						c0.32-17.13-16.03-61.73-11.62-70.87c4.41-9.14,40.03,4.11,40.03,4.11l0.71,31.08L436.44,752.76z"/>
				</g>
				<g>
					<path class="st5" d="M434.31,659.31l-29.07,37.77c-0.04-0.73-0.05-1.43-0.04-2.09c0.32-17.13-16.03-61.73-11.62-70.87
						c4.41-9.14,40.03,4.11,40.03,4.11L434.31,659.31z"/>
				</g>
				<g>
					<path class="st5" d="M377.38,751.81c0,0,2.02,3.81,6.48,4.75c2.81,0.59,5.22,2.01,6.72,3.99c1.27,1.68,0.04,4.04-2.11,4.04
						h-22.66c-1.93,0-3.44-1.61-3.24-3.47c0.17-1.62,0.35-3.52,0.42-4.97c0.17-3.17,3.45-5.72,3.45-5.72L377.38,751.81z"/>
				</g>
				<g>
					<path class="st5" d="M412.77,628.97c0,0-31.48,113.68-32.44,124.81c0,0-6.14,3.05-16.11-2.34c0,0-5.79-50.95,0-64.88
						c5.79-13.92-1.15-56.01,13.57-65.5C392.51,611.56,412.77,628.97,412.77,628.97z"/>
				</g>
				<g>
					<path class="st5" d="M442.38,547.47c2.04-11.83-5.74-20.34-5.74-20.34l-11.66,8.02c-2.25,0.13-3.22,0.92-3.22,0.92
						c-1.93-0.5-7.31,0-7.31,0c0.09,2.69-1.02,5.14-5.9,5.76c-6.49,0.82-12.29-3.47-15.23-6.38c0,0-3.93-0.33-8.86,1.22
						c0,0-2.39-1.18-4.93-1.25l-9.54-8.3c0,0-11.18,3.12-12.94,19.42c0,0,12.55,9.24,13.45,16.54l0.34,2.77l1.22,9.8l2.14,17.19
						l-6.37,34.24c-0.06,0.3-0.09,0.6-0.09,0.89c0,2.29,1.62,4.35,3.99,4.9c0,0,0.55,0.09,1.56,0.22
						c6.76,0.92,34.18,4.08,55.68-1.56c4.83-1.27,8.02-5.74,7.62-10.57l-4.55-55.24c0,0,0.43-8.83,0.54-10.39
						C432.7,553.8,442.38,547.47,442.38,547.47z"/>
				</g>
				<g>
					<path class="st5" d="M382.01,607.27c-0.43,11.94-1.64,22.07-8.7,25.85c-1.01-0.14-1.56-0.22-1.56-0.22
						c-2.38-0.55-3.99-2.61-3.99-4.9c0-0.29,0.03-0.59,0.09-0.89l6.37-34.24l-2.14-17.19c0.1-0.3,0.16-0.46,0.16-0.46
						S382.55,591.97,382.01,607.27z"/>
				</g>
				<g>
					<path class="st5" d="M412.7,532.38c-8.96-0.23-15.79-8.77-15.79-8.77l15.52,0.61C412.16,526.47,412.04,529.5,412.7,532.38z"/>
				</g>
				<g>
					<g>
						<path class="st5" d="M417.04,527.55c0,0-17.86,4.56-24.02-9.18c-6.65-14.83,0.65-25.64,6.71-26.37
							c12.1-1.45,19.12,3.01,21.25,7.73C423.1,504.44,426.9,525.12,417.04,527.55z"/>
					</g>
					<path class="st5" d="M409.96,519.81c0,0,0.75,1.78,5.46,0.78c0,0,3.96-0.84,3.51-2.86
						C418.93,517.74,414.82,516.88,409.96,519.81z"/>
					<g>
						<path class="st5" d="M393.34,480.96c-4.67,1.43-8.14,3.63-10.53,6.31c-0.23-1.03-0.25-1.96-0.25-1.96
							c-0.46,0.89-0.54,1.93-0.48,2.83c-0.03,0.03-0.05,0.07-0.08,0.1c-0.91,0.09-2.27,0.45-3.07,1.71c0,0,0.98-0.63,2.24-0.52
							c-6.3,10.06,0.1,25.08,15.03,33.74c0,0-2.1-5.95-1.84-9.12c0,0-4.66-5.75-1.95-7.18c2.72-1.42,4.18,1.98,4.8,1.31
							c0.62-0.67,1.59-11.97,4.89-11.61c3.3,0.36,15.5,4.02,20.85-0.45C428.31,491.67,415.33,474.22,393.34,480.96z"/>
					</g>
				</g>
			</g>
		</g>
		<g class="st4">
			<g>
				<g>
					<g>
						<path class="st5" d="M759.09,729.25c0,0,7.72,6.92,6.21,11.84c-1.51,4.92-8.47,8.2-9.41,14.21c-0.94,6.01-4.71,9.29-8.09,9.29
							s-16.15,0-16.15,0s-2.49-4.23,3.53-5.5c6.02-1.28,8.29-8.34,7.92-14.89c-0.38-6.56,0.56-15.3,0.56-15.3l12.8-2.91
							L759.09,729.25z"/>
					</g>
					<g>
						<path class="st5" d="M662.91,764.33c-0.19,0.09-0.5,0.18-0.91,0.26h-42.82c0.34-1.45,1.68-4.36,6.84-5.17
							c6.75-1.06,18.44-4.85,21.05-13.21c0.08-0.27,0.16-0.54,0.22-0.82c2.07-8.92,17.13,2.73,17.13,2.73s0.04,0.35,0.11,0.96
							C664.88,752.35,665.77,762.94,662.91,764.33z"/>
					</g>
					<g>
						<path class="st5" d="M627.81,525.62c0,0,2.29,27.61,4.97,60.8c3.65,45.08,8.05,100.46,8.48,110.95
							c0.75,18.22,3.77,47.36,3.77,47.36s7.15,6.92,21.46,4.01c0,0,12.75-41.6,16.39-85.61c0.06-0.72,0.11-1.45,0.17-2.17
							c3.39-44.81,8.66-139.15,8.66-139.15L627.81,525.62z"/>
					</g>
					<g>
						<path class="st5" d="M627.81,525.62c0,0,2.29,27.61,4.97,60.8l50.1,76.7c0.06-0.72,0.11-1.45,0.17-2.17
							c3.39-44.81,8.66-139.15,8.66-139.15L627.81,525.62z"/>
					</g>
					<g>
						<path class="st5" d="M638.26,528.9c0,0,41.22,99.99,68.32,146.98c27.1,46.99,35.57,60.1,35.57,60.1s15.53-6.01,16.94-10.11
							c0,0-10.36-90.72-28.52-112.83c-10.26-12.5-22.3-50-22.87-63.11c-0.56-13.11-3.67-39.07-3.67-39.07L638.26,528.9z"/>
					</g>
				</g>
				<g>
					<g>
						<path class="st5" d="M516.41,491.2l-7.31,1.35c0,0-13.69-3.14-18.72,10.84c0,0-1.63,5.92,2.93,5.61
							c4.57-0.31,2.77-0.83,9.21-1.14c6.45-0.31,12.17-3.46,13.69-7.79l3.57-3.83L516.41,491.2z"/>
					</g>
					<g>
						<path class="st5" d="M511.71,496.99c-2.25-4.7-1.98-5.53-1.98-5.53s41.78-29.18,45.57-32.08c3.79-2.9,43.81-56.58,43.81-56.58
							l49.28,6.68c0,0-66.32,63.54-76.08,70.71c-16.14,11.85-55.78,22.4-55.78,22.4S513.47,500.68,511.71,496.99z"/>
					</g>
				</g>
				<g>
					<path class="st5" d="M620.1,371.49c0,0-16.82,28.63-33.26,32.37c0,0,0.68-9.62,4.69-16.2c-1.64-1.87-3.08-3.59-4.33-5.13
						c-4.14-5.13-6.11-8.27-6.11-8.27l5.58-14.51l3.79-9.85c1.82,3.2,3.83,5.92,5.92,8.25C607.15,370.13,620.1,371.49,620.1,371.49z
						"/>
				</g>
				<g>
					<path class="st5" d="M596.38,358.15c0,0,2.01,14.35-9.17,24.39c-4.14-5.13-6.11-8.27-6.11-8.27l5.58-14.51
						C592.66,357.98,596.38,358.15,596.38,358.15z"/>
				</g>
				<g>
					<path class="st5" d="M576.67,376.38c0,0,25.13-9.48,18.79-24.53c-6.34-15.05-7.37-26.41-23.68-21
						c-16.31,5.42-16.99,12.38-16.14,17.9C556.49,354.28,569.97,378.46,576.67,376.38z"/>
				</g>
				<g>
					<path class="st5" d="M706.48,518.43c-10.14,14.1-85.93,32.95-85.03,23.18c0.34-3.74,0.81-10.32-0.01-19.25
						c-0.19-2.09-0.46-4.31-0.81-6.65c-1.93-12.83-6.5-29.32-16.7-48.41c-0.76-1.43-1.56-2.87-2.39-4.33
						c-4.2-7.39-7.78-15.21-10.51-22.85c-5.25-14.68-7.37-28.73-4.72-37.92c0.01-0.04,0.03-0.08,0.04-0.13
						c15.84-7.09,21.98-34.58,21.98-34.58s54.05,9.39,84.33,79.11C692.67,446.6,715.3,506.15,706.48,518.43z"/>
				</g>
				<g>
					<path class="st5" d="M621.44,522.36c-0.19-2.09-0.46-4.31-0.81-6.65c-1.93-12.83-6.5-29.32-16.7-48.41
						c1.75-10.27,4.17-18.82,6.82-22.66c10.78-15.63,17.06-18.08,17.06-18.08S643.98,492.53,621.44,522.36z"/>
				</g>
				<g>
					<path class="st5" d="M599.06,323.89c0.18-0.34,0.69-0.7,1.94-1.07c0,0-1.17-0.38-2.53-0.09c-0.7-1.67-2.42-4.5-5.64-4.52
						c0,0,1.84,0.46,2.52,2.25c-4.41-2.7-12.58-3.49-32.97,3.09c-26.88,8.66-13.45,23.76-9.38,24.97
						c4.07,1.21,11.57-6.56,18.32-7.62c6.75-1.06,10.39,8.03,12.97,8.79c2.57,0.75,1.11-1.31,3.8-3.39c2.69-2.07,4.24,2.8,4.18,6.23
						c-0.06,3.42,5.19,6.67,5.19,6.67s0,0,3.08-5.47c3.08-5.47,2.24-25.31-0.7-28.88C599.58,324.53,599.32,324.21,599.06,323.89z"/>
				</g>
				<g>
					<g>
						<path class="st5" d="M544.82,437.47c0,0,0.01-9.21-5.79-13.9c-2.12-1.72-4.71-3.32-7.15-4.67c-2.6-1.44-3.03-0.53-2.66,2.36
							c0.29,2.24-0.28,5.17,0.15,6.67c1.3,4.64,1.74,8.01,6.84,10.04C541.3,439.99,544.82,437.47,544.82,437.47z"/>
					</g>
					<g>
						<path class="st5" d="M514.11,440.73c0,0-4.96,0.52-4.81,1.78c0.14,1.26,13.59-0.98,13.44-1.78
							C522.6,439.92,515.88,440.54,514.11,440.73z"/>
					</g>
					<g>
						<path class="st5" d="M578.29,481.82c0,0-0.92-9.98-13.44-14.84c-6.51-2.53-28.95-10.29-21.18-18.72
							c3.95-4.3,4.4-8.78,3.87-12.15c-0.07-0.47-0.16-0.92-0.27-1.34c0,0,0,0,0,0c-0.61-2.5-1.63-4.11-1.63-4.11
							s-0.07-0.16-0.25-0.43c0.44-1.43,0.55-3.2-0.08-5.33c-0.76-2.57-3.39-4.6-5.26-6.62c-1.99-2.16-2.7-1.43-3.3,1.42
							c-0.44,2.11-1.8,4.56-2.02,6.13c-1.52-0.07-3.24-0.03-5.18,0.17c-0.01,0-0.01,0-0.02,0c-0.63,0.06-1.28,0.14-1.96,0.24
							c-6.66,0.96-7.22,3.99-10.25,4.03c-2.77,0.03-6.3-0.03-6.89-0.04c-0.05,0-0.08,0-0.08,0s-4.02-0.84-3.61,2.62
							c0.04,0.37,0.09,0.72,0.13,1.05c0.3,2.41,0.59,3.85,1.61,4.73c0.78,0.67,3.68,1.34,5.8,1.48c1.65,0.11,5.52,0.18,5.73,0.23
							c0.58,0.15-2.14,1.61-10.37,1.73c-0.15,0-0.3,0.01-0.45,0.01c-0.4,0.01-0.72,0.31-0.75,0.69c-0.05,0.69,0.11,1.79,1.31,2.68
							c1.92,1.42,9.25,1.15,8.25,3.15c-0.21,0.42-0.62,0.81-1.15,1.2c0,0,0,0,0,0c-1.96,1.43-5.54,2.82-6.51,5.66
							c0,0,2.61-1.14,4.52-0.9c0,0-6.15,2.13-6.26,5.18c0,0,0.79-0.68,2.25-0.66c0,0-4.92,4.83-4.28,11.76c0,0,0,0,0,0.01
							c-3,3.99-7.58,9.37-11,10.3c0,0-2.96-1.68-4.32-1.64c-1.36,0.04-3.41,2.08-3.4,3.65c0.01,1.57,7.89,1.99,8.85,1.68
							c0.96-0.3,21.38-0.3,23.62-1.69c0,0,0,0,0,0L578.29,481.82z"/>
					</g>
					<g>
						<polygon class="st5" points="576.27,470.8 487.81,483.34 499.3,559.26 587.77,546.72 						"/>
					</g>
					<g>
						<polygon class="st5" points="620.5,464.52 532.04,477.07 543.54,552.99 632,540.44 						"/>
					</g>
					<g>
						<polygon class="st5" points="532.04,477.07 620.73,464.49 624.38,488.63 543.54,552.99 						"/>
					</g>
					<g>
						<polygon class="st5" points="496.44,540 510.46,538.01 508.6,534.08 509.39,530.97 495.37,532.96 						"/>
					</g>
					<g>
						<polygon class="st5" points="533.34,485.65 517.63,507.7 492.1,511.32 487.86,483.33 532.04,477.07 						"/>
					</g>
					<g>
						<polygon class="st5" points="487.81,483.34 470.94,506.14 515.2,499.86 532.04,477.07 						"/>
					</g>
					<g>
						<polygon class="st5" points="532.04,477.07 552.57,494.56 639.86,482.18 620.5,464.52 						"/>
					</g>
					<g>
						<path class="st5" d="M510.44,430.2c-0.42,1.2-1.47,3.41-3.57,3.67c-0.04-0.33-0.08-0.68-0.13-1.05
							c-0.41-3.45,3.61-2.62,3.61-2.62S510.39,430.2,510.44,430.2z"/>
					</g>
					<g>
						<path class="st5" d="M505.22,480.87c0,0,7.98-6.13,18.2-7.67c10.22-1.55,25.81,1.43,25.81,1.43L505.22,480.87z"/>
					</g>
					<g>
						<path class="st5" d="M564.85,466.98c-23.39-0.06-44.56-17.59-33.15-18.21c11.42-0.62,15.57-14.01,15.57-14.01s0,0,0,0
							c0.1,0.42,0.19,0.87,0.27,1.34c0.52,3.37,0.08,7.85-3.87,12.15C535.9,456.7,558.34,464.46,564.85,466.98z"/>
					</g>
					<g>
						<path class="st5" d="M577.22,470.8c0,0,3.1-10.9-9.03-9.11c0,0,1.77-4.36,8.04-4.36c0,0-0.48-1.17-1.61-1.87
							c0,0,7.64-1.4,10.77,4.04c0,0,0.88-3.49,0-5.05c0,0,8.2,2.1,7.07,10.03c0,0,1.62-1.03,2.01-3.2c0,0,2.29,3.86-0.35,7.1
							L577.22,470.8z"/>
					</g>
					<g>
						<path class="st5" d="M535.88,426.68c0,0,0.05-0.93,0.86-2.64c0.8-1.71,0.7-4.56,1.07-4.51c0.37,0.05,3.91,6.95,1.66,9.02
							C539.47,428.55,537.49,429.23,535.88,426.68z"/>
					</g>
					<g>
						<path class="st5" d="M506.59,470.82c-0.64-6.94,4.28-11.76,4.28-11.76c-1.46-0.02-2.25,0.66-2.25,0.66
							c0.11-3.05,6.26-5.18,6.26-5.18c-1.91-0.24-4.52,0.9-4.52,0.9c0.97-2.84,4.55-4.22,6.51-5.66c0,0,0,0,0,0
							c0.12-0.04,3.44-1.21,4.55,0.7C522.54,452.43,506.39,463.24,506.59,470.82z"/>
					</g>
				</g>
				<g>
					<g>
						<path class="st5" d="M533.34,507.46c0,0-9.43-0.48-11.52,0c-2.09,0.47-8.96,4.63-8.96,5.22c0,0.59,0.43,1.01,1.72,0.89
							c1.29-0.12,5.4-1.31,5.21-0.77c-0.18,0.53-11.88,4.75-11.61,7.12c0.26,2.37,7.63,5.7,13.27,5.11
							c5.64-0.59,15.72-8.33,16.51-8.86C538.75,515.65,533.34,507.46,533.34,507.46z"/>
					</g>
					<g>
						<path class="st5" d="M533.42,512.15c-3-4.68-0.84-6.82-0.84-6.82s46.19-35,49.81-38.53c3.62-3.54,20.39-59.83,20.39-59.83
							s5.77-22.78,19.29-25.29c11.75-2.18,19.87,3.44,25.18,10.03c6.33,7.86,6.95,18.69,1.7,27.26
							c-11.79,19.23-35.58,57.4-42.53,63.92c-15.46,14.51-67.19,34.8-67.19,34.8S535.77,515.83,533.42,512.15z"/>
					</g>
				</g>
				<path class="st5" d="M569.01,369.17c0,0,1.27,2.21,5.71,0.55c0,0,3.73-1.39,2.7-3.92C577.42,365.8,573.05,365.03,569.01,369.17z
					"/>
			</g>
		</g>
		<g>
			<path class="st3" d="M335.32,349.31c-0.18-1-2.55-11.78-19.21-9.94c0,0,8.3-0.21,10.23,3.17c0,0-6.2-3.62-10.51-1.54
				c-4.32,2.08-5.82,10.39-5.47,13c0.35,2.61,4.08,10.64,7.06,10.94c1.13,0.11,2.37-0.14,3.48-0.5c-0.59,1.3-1.15,2.73-1.65,4.3
				c-4.65,14.54,4.11,26.83,9.49,24.55c3.46-1.46,5.36,4.52,5.36,4.52l30.8-33.32C364.9,364.48,348.23,339.81,335.32,349.31z"/>
			<path class="st6" d="M375.45,750.68l-7.49,2.79c0,0-32.54-45.13-36.55-84.84c-0.72-7.09-0.48-13.96,1.07-20.3
				c0,0-0.32-1.82-0.87-5.03c-0.26-1.5-0.58-3.3-0.94-5.37c-1.06-6.06-2.51-14.36-4.18-23.8c-3.83-21.73-8.79-49.51-12.64-69.94
				l2.02-0.65l21.84-7.05l4.51-14.34l16.26-4.28c0,0,3.63,7.11,6.88,40.68c0.6,4.4,1.14,9.26,1.55,14.53
				c1.27,16.07,1.36,36.01-1.55,58.81c-0.75,5.84-1.69,11.86-2.86,18.05c-0.86,4.54-0.98,10.72-0.62,17.82
				C363.54,700.23,375.45,750.68,375.45,750.68z"/>
			<path class="st7" d="M366.93,573.08l-35.32,70.21c-0.26-1.5-0.58-3.3-0.94-5.37c-1.06-6.06-2.51-14.36-4.18-23.8
				c-3.83-21.73-8.79-49.51-12.64-69.94l2.02-0.65l21.84-7.05l4.51-14.34l16.26-4.28c0,0,3.63,7.11,6.88,40.68
				C365.97,562.96,366.52,567.82,366.93,573.08z"/>
			<path class="st6" d="M351.39,526.89c0,0-0.01,0.06-0.04,0.17c-0.11,0.46-0.46,1.88-0.95,3.92c-2.35,9.66-8.08,33.12-8.43,33.1
				c-3.15,22-7.88,50.5-13.77,72.4c-3.11,11.59-6.54,21.33-10.23,27.29c-1.27,2.05-2.65,5.47-4.09,9.83
				c-8.5,25.69-18.95,83.85-18.95,83.85l-4.77,1.92c0,0-18.38-52.26-2.45-94.69c1.62-4.32,3.6-8.54,5.99-12.59
				c0.27-0.47,0.46-0.98,0.4-1.52c0-0.01,0-0.01,0-0.02c-0.21-1.77-0.72-6.19-1.31-12.41c-1.62-17.16-3.18-75.15-4.03-88.8
				c-0.32-5.16-0.13-9.77,0.4-13.85c1.02-7.96,3.32-13.93,5.56-18.1c2.83-5.26,5.58-7.67,5.58-7.67s36.6,13.8,50.3,10.16
				L351.39,526.89z"/>
			<path class="st7" d="M351.35,530.35c-0.29,0.21-0.61,0.42-0.95,0.62c-12.62,7.38-56.9,4.78-61.25,4.51
				c1.02-7.96,3.32-13.93,5.56-18.1c18.94,1.68,50.33,5.09,56.65,9.67C352.79,528.09,352.94,529.2,351.35,530.35z"/>
			<path class="st8" d="M421.99,515.39l-2.22,6.57c0,0-0.45-0.08-1.22-0.28c-2.42-0.61-8.33-2.02-14.96-3.96
				c-9.97-2.83-21.71-6.79-25.97-10.61c-6.51-5.78-16.04-21.61-21.39-36.69c-0.16-0.37-0.27-0.74-0.38-1.1
				c-2.77-7.99-4.31-15.7-3.5-21.49c0.47-3.55,1.4-6.49,2.6-8.98c1.57-3.29,3.63-5.74,5.62-7.51c0.28-0.29,0.57-0.59,0.95-0.81
				c3.25-2.7,5.76-4.43,5.76-4.43c1.44-0.32,3.13,1.48,4.34,3.37c0,0,1.97,3.75,2.81,6.44c0.05,0.07,0.09,0.13,0.08,0.19
				c0.19,0.55,0.37,1.16,0.59,1.83c0.09,0.13,0.12,0.31,0.15,0.43c0.38,1.39,0.75,2.84,1.12,4.35c4.17,16.19,7.39,40.16,12.26,48.01
				c2.1,3.37,13.07,11.23,21.85,17.19C416.81,512.15,421.99,515.39,421.99,515.39z"/>
			<path class="st8" d="M363.28,441.79c-3.97,2.59-8.91,4.68-15.08,5.92c-23.12,4.66-31.38-15-34.31-28.42
				c3.18-1.7,6.14-2.02,7.85-2.17c1.67-0.15,3.42-0.23,4.86-0.26c2.63-1.9,6.71-9.88,7.91-22.41l1.07,0.32l17.96,5.46
				c0,0-0.99,5.73-1.55,11.16c-0.43,4.25-0.6,8.31,0.18,9.33c1.4,0.35,2.25,0.57,2.25,0.57s0,0.01,0.01,0.02
				C354.67,421.72,359.68,430.5,363.28,441.79z"/>
			<path class="st9" d="M371.33,456.24c-0.11,0.49-0.24,0.97-0.38,1.47c-4.06,13.57-7.34,67.81-7.34,67.81
				c2.93,9.24-71.42,8.47-72.86-0.12c-3.89-8.77,5.63-25.14,11.13-33.46c0.69-1.05,1.28-2.15,1.77-3.29
				c1.24-2.86,1.84-5.98,1.72-9.12c-0.48-12.41-2.64-23.79-3.54-30.77c0,0,0,0,0,0c1.15-1.14,2.26-2.19,3.29-3.2
				c1.58-1.55,2.97-2.98,3.94-4.37c1.07-1.52,1.67-2.99,1.53-4.54c-0.1-1.17-0.31-2.36-0.61-3.53c-0.14-0.55-0.29-1.11-0.46-1.66
				c-1.77-5.78-5.01-10.79-5.01-10.79c5.89-3.44,17.22-3.54,17.22-3.54s0.08,0.62,0.22,1.63c0.55,4.07,2.1,14.49,3.69,16.28
				c1.99,2.22,33.34,8.67,34.43,5.1c1.07-3.51-5.4-18.26-5.64-18.82c-0.01-0.01-0.01-0.02-0.01-0.02
				c10.54,2.47,14.59,5.24,14.59,5.24C363.57,431.31,374.19,443.23,371.33,456.24z"/>
			<path class="st10" d="M353.56,400.24c0,0-0.99,5.73-1.55,11.16c-10.23-1.32-14.71-11.21-16.41-16.62L353.56,400.24z"/>
			<path class="st8" d="M356.47,405.73c0,0-24.31-2.03-22.81-17.15c1.5-15.12-0.63-25.56,14.95-24.9
				c15.58,0.66,18.02,6.72,18.75,11.89C368.08,380.74,362.83,405.87,356.47,405.73z"/>
			<path class="st3" d="M367.48,367.09c-3.3-4.92-6.23-4.21-7.96-3c-12.53-8.62-22.16,1.31-22.16,1.31
				c-2.71,10.68-11.15,16.11-11.15,16.11s4.15,3.17,14.61,1.57c3.19-0.49,6.2-2.42,8.83-4.87c-4.82,6.5-10.93,10.92-10.93,10.92
				c12.74-4.41,19.33-20.86,20-22.6c1.35,1.48,3.98,4.66,4.59,7.58c0.82,3.97,0.57,11.95,2.91,11.91
				C366.21,386.03,372.42,374.47,367.48,367.09z"/>
			<path class="st11" d="M341.47,510.67c-14.36,1.93-28.67-11.2-37.81-22.02c1.24-2.86,1.84-5.98,1.72-9.12
				c-0.48-12.41-2.64-23.79-3.54-30.77c0,0,0,0,0,0c1.15-1.14,2.26-2.19,3.29-3.2c1.58-1.55,2.97-2.98,3.94-4.37
				C323.69,459.33,360.94,508.05,341.47,510.67z"/>
			<g>
				<path class="st8" d="M391.57,515.59l2.54,8.62c0,0-6.41-1.46-10.43-1.85c-1.21-0.12-1.9-0.23-1.9-0.23
					c-3.22-0.35-7.08-0.87-11.28-1.41l-0.06,0c-7.21-1.08-15.29-2.43-22.15-4.11c-4.83-1.23-9.05-2.63-11.97-4.14
					c-0.3-0.14-0.54-0.3-0.84-0.5c-7.03-4.23-16.1-17.67-23.52-32.27c-1.03-2.02-2-4.04-2.97-6c-3.48-7.32-6.39-14.59-8.3-20.91
					c-1.18-3.77-2.05-7.22-2.41-10.09c-0.14-1.01-0.28-1.97-0.31-2.88c-0.04-0.52-0.07-1.03-0.1-1.53
					c2.84-2.49,9.39-7.13,18.32-6.65c0.19,0.32,0.37,0.64,0.56,0.97c3.85,7.01,8.06,16.14,12.04,25.25
					c2.2,4.99,4.34,9.98,6.44,14.58c1.21,2.8,2.41,5.42,3.53,7.83c2.16,4.59,4.08,8.3,5.7,10.6c1.04,1.51,3.83,3.48,7.49,5.67
					c6.36,3.83,15.58,8.32,23.57,11.95c3.32,1.53,6.46,2.91,9.06,4.05C388.8,514.4,391.57,515.59,391.57,515.59z"/>
				<path class="st12" d="M317.09,432.72c-11.13-2.05-19.13,7.09-19.13,7.09c-1.28-16.37,6.66-19.31,6.66-19.31
					C307.78,418.85,312.41,424.27,317.09,432.72z"/>
			</g>
			<path class="st3" d="M317.88,763.25h-37.73c0,0-0.9-5.75,1.07-10.11c1.89-4.19,4.85-6.09,4.14-11.15
				c2.4,2.47,6.31,5.23,11.76,4.5c0.67,1.08,4.31,6.88,6.55,8.49C306.13,756.74,317.12,756.11,317.88,763.25z"/>
			<path class="st3" d="M398.9,763.25h-37.73c0,0-1.41-6.02,1.07-10.11c2.19-3.62,1.35-5.69-0.27-8.69c1.71,0.7,3.92,1.34,6.36,1.2
				c1.88-0.11,3.87-0.96,5.61-1.97c1.62,1.85,8.58,9.73,10.75,11.29C387.15,756.74,398.14,756.11,398.9,763.25z"/>
			<path class="st13" d="M350.67,396.99c0,0,0.34,2,5.26,2.01c0,0,4.13,0,4.15-2.17C360.08,396.82,356.18,395.03,350.67,396.99z"/>
		</g>
		<g>
			<path class="st14" d="M398.57,532.44c0,0-17.84-23.1-26.52-30.27c0,0-11.87-29.28-12.84-31.21c-0.05-0.09-0.11-0.17-0.17-0.23
				c-0.13-0.68-0.53-3.13-0.09-5.38c0.52-2.64-1.16-8.98-2.31-8.41c-1.15,0.57-0.21,2.79-1.61,2.76c-1.41-0.04-4.88-7.14-6.53-6.15
				c-1.65,0.99-2.5,3.73-1.01,9.07c1.24,4.45,3.84,8.63,4.67,9.91c-0.05,0.03-0.08,0.04-0.08,0.04s4.36,28.46,8.96,36.9
				c4.6,8.44,18.86,36.75,28.93,37.8S398.57,532.44,398.57,532.44z"/>
			<path class="st14" d="M477.25,460.18c-1.6-0.61-3.56,6.14-4.79,6.38c-1.23,0.25-0.74-1.84-1.83-2.17
				c-1.1-0.33-1.6,5.48-0.74,7.72c0.86,2.24,0.74,4.89,0.74,4.89s-7.3,28.2-8.87,31.35c-1.57,3.16-27.3,26.11-27.3,26.11l5.66,18.28
				c0,0,30.31-28.01,32.9-34.6c2.58-6.59,3.75-40.4,3.75-40.4s2.27-4.87,2.76-9.78C480.01,463.06,478.85,460.79,477.25,460.18z"/>
			<path class="st14" d="M433.25,529.13l-12.18,15.93l-11.2-18.88c0,0,2.46-4.64,3.58-12.24c0.47-3.2,0.7-6.92,0.4-11.04l15.75,8.06
				c0,0-0.38,1.46-0.63,3.61c-0.27,2.32-0.39,5.45,0.27,8.43C429.81,525.55,431.13,527.41,433.25,529.13z"/>
			<path class="st15" d="M452.44,749.75c0,0,2.01,3.93,6.48,4.91c2.81,0.61,5.22,2.08,6.72,4.13c1.27,1.73,0.04,4.17-2.11,4.17
				h-22.66c-1.93,0-3.44-1.66-3.24-3.59c0.17-1.68,0.35-3.63,0.42-5.13c0.17-3.27,3.45-5.91,3.45-5.91L452.44,749.75z"/>
			<path class="st16" d="M452.98,750.74c0,0-5.44,3.21-14.64,1.27c0,0-15.64-39.99-16.57-58.81c-0.04-0.76-0.05-1.48-0.04-2.16
				c0.32-17.7-16.03-63.79-11.62-73.24c4.41-9.45,40.03,4.24,40.03,4.24l0.71,32.12L452.98,750.74z"/>
			<path class="st17" d="M450.85,654.16l-29.07,39.04c-0.04-0.76-0.05-1.48-0.04-2.16c0.32-17.7-16.03-63.79-11.62-73.24
				c4.41-9.45,40.03,4.24,40.03,4.24L450.85,654.16z"/>
			<path class="st15" d="M393.93,749.75c0,0,2.02,3.93,6.48,4.91c2.81,0.61,5.22,2.08,6.72,4.13c1.27,1.73,0.04,4.17-2.11,4.17
				h-22.66c-1.93,0-3.44-1.66-3.24-3.59c0.17-1.68,0.35-3.63,0.42-5.13c0.17-3.27,3.45-5.91,3.45-5.91L393.93,749.75z"/>
			<path class="st16" d="M429.31,622.81c0,0-31.48,117.48-32.44,128.98c0,0-6.14,3.15-16.11-2.41c0,0-5.79-52.65,0-67.04
				c5.79-14.39-1.15-57.88,13.57-67.69C409.06,604.82,429.31,622.81,429.31,622.81z"/>
			<path class="st15" d="M458.92,538.59c2.04-12.22-5.74-21.02-5.74-21.02l-11.66,8.29c-2.25,0.13-3.22,0.95-3.22,0.95
				c-1.93-0.52-7.31,0-7.31,0c0.09,2.78-1.02,5.31-5.9,5.95c-6.49,0.85-12.29-3.58-15.23-6.59c0,0-3.93-0.34-8.86,1.27
				c0,0-2.39-1.22-4.93-1.3l-9.54-8.58c0,0-11.18,3.23-12.94,20.07c0,0,12.55,9.55,13.45,17.09l0.34,2.86l1.22,10.13l2.14,17.77
				l-6.37,35.39c-0.06,0.31-0.09,0.62-0.09,0.92c0,2.37,1.62,4.49,3.99,5.07c0,0,0.55,0.09,1.56,0.23
				c6.76,0.95,34.18,4.22,55.68-1.62c4.83-1.31,8.02-5.93,7.62-10.93l-4.55-57.09c0,0,0.43-9.13,0.54-10.74
				C449.24,545.13,458.92,538.59,458.92,538.59z"/>
			<path class="st18" d="M398.55,600.39c-0.43,12.34-1.64,22.81-8.7,26.72c-1.01-0.14-1.56-0.23-1.56-0.23
				c-2.38-0.57-3.99-2.7-3.99-5.07c0-0.3,0.03-0.61,0.09-0.92l6.37-35.39l-2.14-17.77c0.1-0.31,0.16-0.47,0.16-0.47
				S399.09,584.58,398.55,600.39z"/>
			<path class="st10" d="M429.24,522.99c-8.96-0.24-15.79-9.06-15.79-9.06l15.52,0.63C428.7,516.89,428.58,520.02,429.24,522.99z"/>
			<g>
				<path class="st14" d="M433.58,518c0,0-17.86,4.72-24.02-9.49c-6.65-15.33,0.65-26.5,6.71-27.25c12.1-1.5,19.12,3.11,21.25,7.99
					C439.64,494.13,443.44,515.49,433.58,518z"/>
				<path class="st13" d="M426.5,510.01c0,0,0.75,1.84,5.46,0.81c0,0,3.96-0.87,3.51-2.95C435.47,507.86,431.36,506.97,426.5,510.01
					z"/>
				<path class="st19" d="M409.88,469.86c-4.67,1.48-8.14,3.75-10.53,6.52c-0.23-1.06-0.25-2.03-0.25-2.03
					c-0.46,0.92-0.54,1.99-0.48,2.92c-0.03,0.04-0.05,0.07-0.08,0.11c-0.91,0.09-2.27,0.47-3.07,1.77c0,0,0.98-0.65,2.24-0.53
					c-6.3,10.4,0.1,25.92,15.03,34.87c0,0-2.1-6.15-1.84-9.43c0,0-4.66-5.94-1.95-7.42c2.72-1.47,4.18,2.05,4.8,1.36
					c0.62-0.69,1.59-12.37,4.89-12c3.3,0.37,15.5,4.15,20.85-0.46C444.85,480.92,431.88,462.89,409.88,469.86z"/>
			</g>
		</g>
		<g>
			<g>
				<path class="st11" d="M775.63,726.44c0,0,7.72,7.15,6.21,12.23c-1.51,5.08-8.47,8.47-9.41,14.68c-0.94,6.21-4.71,9.6-8.09,9.6
					s-16.15,0-16.15,0s-2.49-4.37,3.53-5.69c6.02-1.32,8.29-8.62,7.92-15.39c-0.38-6.78,0.56-15.81,0.56-15.81l12.8-3.01
					L775.63,726.44z"/>
				<path class="st11" d="M679.45,762.69c-0.19,0.1-0.5,0.18-0.91,0.26h-42.82c0.34-1.5,1.68-4.51,6.84-5.34
					c6.75-1.09,18.44-5.01,21.05-13.65c0.08-0.28,0.16-0.56,0.22-0.85c2.07-9.22,17.13,2.83,17.13,2.83s0.04,0.37,0.11,0.99
					C681.42,750.31,682.32,761.26,679.45,762.69z"/>
				<path class="st15" d="M644.35,516.01c0,0,2.29,28.53,4.97,62.83c3.65,46.59,8.05,103.82,8.48,114.66
					c0.75,18.82,3.77,48.94,3.77,48.94s7.15,7.15,21.46,4.14c0,0,12.75-42.99,16.39-88.47c0.06-0.75,0.11-1.5,0.17-2.25
					c3.39-46.3,8.66-143.8,8.66-143.8L644.35,516.01z"/>
				<path class="st18" d="M644.35,516.01c0,0,2.29,28.53,4.97,62.83l50.1,79.27c0.06-0.75,0.11-1.5,0.17-2.25
					c3.39-46.3,8.66-143.8,8.66-143.8L644.35,516.01z"/>
				<path class="st15" d="M654.8,519.4c0,0,41.22,103.33,68.32,151.89c27.1,48.56,35.57,62.11,35.57,62.11s15.53-6.21,16.94-10.45
					c0,0-10.36-93.75-28.52-116.6c-10.26-12.91-22.3-51.67-22.87-65.22c-0.56-13.55-3.67-40.37-3.67-40.37L654.8,519.4z"/>
			</g>
			<g>
				<path class="st10" d="M532.95,480.44l-7.31,1.39c0,0-13.69-3.24-18.72,11.2c0,0-1.63,6.12,2.93,5.79
					c4.57-0.32,2.77-0.86,9.21-1.17c6.45-0.32,12.17-3.57,13.69-8.05l3.57-3.96L532.95,480.44z"/>
				<path class="st20" d="M528.25,486.42c-2.25-4.86-1.98-5.71-1.98-5.71s41.78-30.15,45.57-33.15c3.79-3,43.81-58.47,43.81-58.47
					l49.28,6.9c0,0-66.32,65.66-76.08,73.07c-16.14,12.25-55.78,23.15-55.78,23.15S530.01,490.23,528.25,486.42z"/>
			</g>
			<path class="st8" d="M636.64,356.73c0,0-16.82,29.59-33.26,33.45c0,0,0.68-9.94,4.69-16.74c-1.64-1.93-3.08-3.71-4.33-5.3
				c-4.14-5.3-6.11-8.55-6.11-8.55l5.58-15l3.79-10.18c1.82,3.3,3.83,6.12,5.92,8.52C623.69,355.33,636.64,356.73,636.64,356.73z"/>
			<path class="st10" d="M612.92,342.94c0,0,2.01,14.83-9.17,25.2c-4.14-5.3-6.11-8.55-6.11-8.55l5.58-15
				C609.2,342.77,612.92,342.94,612.92,342.94z"/>
			<path class="st8" d="M593.21,361.78c0,0,25.13-9.8,18.79-25.35c-6.34-15.55-7.37-27.3-23.68-21.7
				c-16.31,5.6-16.99,12.8-16.14,18.5C573.03,338.94,586.51,363.93,593.21,361.78z"/>
			<path class="st21" d="M723.02,508.58c-10.14,14.57-85.93,34.05-85.03,23.96c0.34-3.86,0.81-10.67-0.01-19.9
				c-0.19-2.16-0.46-4.45-0.81-6.87c-1.93-13.26-6.5-30.3-16.7-50.03c-0.76-1.48-1.56-2.97-2.39-4.48
				c-4.2-7.64-7.78-15.71-10.51-23.61c-5.25-15.18-7.37-29.69-4.72-39.19c0.01-0.05,0.03-0.09,0.04-0.13
				c15.84-7.33,21.98-35.74,21.98-35.74s54.05,9.7,84.33,81.75C709.21,434.34,731.84,495.89,723.02,508.58z"/>
			<path class="st20" d="M637.98,512.64c-0.19-2.16-0.46-4.45-0.81-6.87c-1.93-13.26-6.5-30.3-16.7-50.03
				c1.75-10.62,4.17-19.45,6.82-23.42c10.78-16.16,17.06-18.68,17.06-18.68S660.52,481.81,637.98,512.64z"/>
			<path class="st3" d="M615.6,307.53c0.18-0.35,0.69-0.72,1.94-1.1c0,0-1.17-0.39-2.53-0.09c-0.7-1.72-2.42-4.65-5.64-4.68
				c0,0,1.84,0.48,2.52,2.33c-4.41-2.79-12.58-3.61-32.97,3.19c-26.88,8.95-13.45,24.56-9.38,25.81c4.07,1.25,11.57-6.78,18.32-7.87
				c6.75-1.1,10.39,8.3,12.97,9.08c2.57,0.78,1.11-1.36,3.8-3.5c2.69-2.14,4.24,2.9,4.18,6.43c-0.06,3.54,5.19,6.89,5.19,6.89
				s0,0,3.08-5.65c3.08-5.65,2.24-26.16-0.7-29.85C616.13,308.2,615.87,307.87,615.6,307.53z"/>
			<g>
				<path class="st22" d="M561.36,424.91c0,0,0.01-9.52-5.79-14.37c-2.12-1.77-4.71-3.43-7.15-4.83c-2.6-1.49-3.03-0.54-2.66,2.43
					c0.29,2.32-0.28,5.34,0.15,6.89c1.3,4.79,1.74,8.28,6.84,10.38C557.85,427.51,561.36,424.91,561.36,424.91z"/>
				<path class="st16" d="M530.65,428.28c0,0-4.96,0.54-4.81,1.84c0.14,1.3,13.59-1.01,13.44-1.84
					C539.14,427.45,532.42,428.08,530.65,428.28z"/>
				<path class="st23" d="M594.83,470.75c0,0-0.92-10.32-13.44-15.33c-6.51-2.61-28.95-10.63-21.18-19.35
					c3.95-4.44,4.4-9.07,3.87-12.56c-0.07-0.49-0.16-0.95-0.27-1.39c0,0,0,0,0,0c-0.61-2.58-1.63-4.25-1.63-4.25
					s-0.07-0.17-0.25-0.44c0.44-1.48,0.55-3.31-0.08-5.51c-0.76-2.66-3.39-4.75-5.26-6.84c-1.99-2.23-2.7-1.48-3.3,1.47
					c-0.44,2.18-1.8,4.71-2.02,6.33c-1.52-0.07-3.24-0.03-5.18,0.17c-0.01,0-0.01,0-0.02,0c-0.63,0.06-1.28,0.14-1.96,0.24
					c-6.66,0.99-7.22,4.12-10.25,4.16c-2.77,0.04-6.3-0.03-6.89-0.04c-0.05,0-0.08,0-0.08,0s-4.02-0.86-3.61,2.7
					c0.04,0.38,0.09,0.75,0.13,1.09c0.3,2.5,0.59,3.97,1.61,4.89c0.78,0.69,3.68,1.38,5.8,1.53c1.65,0.12,5.52,0.19,5.73,0.24
					c0.58,0.15-2.14,1.66-10.37,1.79c-0.15,0-0.3,0.01-0.45,0.01c-0.4,0.01-0.72,0.32-0.75,0.71c-0.05,0.72,0.11,1.85,1.31,2.77
					c1.92,1.46,9.25,1.19,8.25,3.25c-0.21,0.44-0.62,0.84-1.15,1.24c0,0,0,0,0,0c-1.96,1.48-5.54,2.91-6.51,5.85
					c0,0,2.61-1.17,4.52-0.93c0,0-6.15,2.21-6.26,5.35c0,0,0.79-0.71,2.25-0.68c0,0-4.92,4.99-4.28,12.15c0,0,0,0,0,0.01
					c-3,4.12-7.58,9.69-11,10.64c0,0-2.96-1.73-4.32-1.69c-1.36,0.04-3.41,2.15-3.4,3.78c0.01,1.62,7.89,2.05,8.85,1.74
					c0.96-0.31,21.38-0.31,23.62-1.75c0,0,0,0,0,0L594.83,470.75z"/>
				
					<rect x="509.62" y="465.42" transform="matrix(0.9894 -0.145 0.145 0.9894 -67.3713 85.7085)" class="st24" width="89.41" height="79.29"/>
				
					<rect x="553.86" y="458.93" transform="matrix(0.9894 -0.145 0.145 0.9894 -65.9669 92.0574)" class="st25" width="89.41" height="79.29"/>
				<polygon class="st11" points="548.58,465.84 637.27,452.84 640.92,477.78 560.08,544.29 				"/>
				<polygon class="st25" points="512.98,530.87 527,528.81 525.14,524.75 525.93,521.54 511.92,523.59 				"/>
				<polygon class="st26" points="549.88,474.7 534.17,497.49 508.64,501.24 504.4,472.31 548.58,465.84 				"/>
				<polygon class="st25" points="504.35,472.32 487.48,495.87 531.74,489.39 548.58,465.84 				"/>
				<polygon class="st25" points="548.58,465.84 569.11,483.91 656.4,471.12 637.04,452.87 				"/>
				<path class="st16" d="M526.98,417.4c-0.42,1.24-1.47,3.52-3.57,3.79c-0.04-0.34-0.08-0.71-0.13-1.09
					c-0.41-3.57,3.61-2.7,3.61-2.7S526.93,417.4,526.98,417.4z"/>
				<path class="st22" d="M521.76,469.77c0,0,7.98-6.33,18.2-7.93c10.22-1.6,25.81,1.48,25.81,1.48L521.76,469.77z"/>
				<path class="st22" d="M581.39,455.41c-23.39-0.07-44.56-18.17-33.15-18.82c11.42-0.64,15.57-14.48,15.57-14.48s0,0,0,0
					c0.1,0.44,0.19,0.9,0.27,1.39c0.52,3.48,0.08,8.12-3.87,12.56C552.44,444.78,574.88,452.8,581.39,455.41z"/>
				<path class="st22" d="M593.77,459.35c0,0,3.1-11.26-9.03-9.41c0,0,1.77-4.5,8.04-4.5c0,0-0.48-1.21-1.61-1.93
					c0,0,7.64-1.45,10.77,4.18c0,0,0.88-3.61,0-5.22c0,0,8.2,2.17,7.07,10.37c0,0,1.62-1.06,2.01-3.31c0,0,2.29,3.99-0.35,7.34
					L593.77,459.35z"/>
				<path class="st16" d="M552.42,413.77c0,0,0.05-0.96,0.86-2.73c0.8-1.77,0.7-4.72,1.07-4.66c0.37,0.05,3.91,7.18,1.66,9.32
					C556.01,415.7,554.03,416.39,552.42,413.77z"/>
				<path class="st16" d="M523.13,459.38c-0.64-7.17,4.28-12.15,4.28-12.15c-1.46-0.03-2.25,0.68-2.25,0.68
					c0.11-3.15,6.26-5.35,6.26-5.35c-1.91-0.24-4.52,0.93-4.52,0.93c0.97-2.94,4.55-4.36,6.51-5.85c0,0,0,0,0,0
					c0.12-0.04,3.44-1.25,4.55,0.73C539.08,440.38,522.93,451.54,523.13,459.38z"/>
			</g>
			<g>
				<path class="st8" d="M549.88,497.24c0,0-9.43-0.49-11.52,0c-2.09,0.49-8.96,4.79-8.96,5.4c0,0.61,0.43,1.04,1.72,0.92
					c1.29-0.12,5.4-1.35,5.21-0.8c-0.18,0.55-11.88,4.91-11.61,7.36c0.26,2.45,7.63,5.89,13.27,5.28
					c5.64-0.61,15.72-8.61,16.51-9.15C555.29,505.7,549.88,497.24,549.88,497.24z"/>
				<path class="st21" d="M549.96,502.09c-3-4.84-0.84-7.05-0.84-7.05s46.19-36.17,49.81-39.82c3.62-3.65,20.39-61.83,20.39-61.83
					s5.77-23.54,19.29-26.14c11.75-2.26,19.87,3.56,25.18,10.37c6.33,8.12,6.95,19.32,1.7,28.17
					c-11.79,19.87-35.58,59.32-42.53,66.06c-15.46,15-67.19,35.96-67.19,35.96S552.31,505.89,549.96,502.09z"/>
			</g>
			<path class="st13" d="M585.55,354.33c0,0,1.27,2.29,5.71,0.57c0,0,3.73-1.44,2.7-4.05C593.96,350.85,589.59,350.05,585.55,354.33
				z"/>
		</g>
		<path class="st2" d="M567.63,762.96h-46.04c-2.47-2.09,1.71-6.85,6.07-7.16c1.89-0.14,4.29,0.25,7.03,0.83
			c0.63-8.41,4.25-46.24,17.89-44.72c15.33,1.7,0,16.66-4.33,25.51c-3.21,6.56-6.6,15.97-8.15,20.4c1.24,0.27,2.53,0.53,3.85,0.78
			c2.03-6.24,9.59-27.23,19.21-26c11.29,1.43,6.75,9.85-1.25,14.84c-5.87,3.67-13.08,8.89-16.5,11.42c2.9,0.47,5.93,0.79,9,0.72
			C562.29,759.38,566.14,761.71,567.63,762.96z"/>
		<path class="st8" d="M391.57,515.59c0,0,12.3,2.39,13.4,3.74c1.1,1.35,4.88,8.71,4.89,10.43c0.01,1.72-6.44,2.13-9.27-1.35
			c-2.82-3.48-5.92-1.93-9.03-6.3C388.47,517.73,391.57,515.59,391.57,515.59z"/>
	</g>
	<path class="st0" d="M471.08,275.62c7.33,25.01-16.28,64.58-57.42,76.64s-84.22-7.97-91.55-32.98
		c-7.33-25.01,20.07-55.06,61.21-67.12S463.75,250.61,471.08,275.62z"/>
</g>
</svg>
