<?xml version="1.0" encoding="utf-8"?>
<!-- Generator: Adobe Illustrator 25.0.0, SVG Export Plug-In . SVG Version: 6.00 Build 0)  -->
<svg version="1.1" id="Camada_1" xmlns="http://www.w3.org/2000/svg" xmlns:xlink="http://www.w3.org/1999/xlink" x="0px" y="0px"
	 viewBox="0 0 434 127" style="enable-background:new 0 0 434 127;" xml:space="preserve">
<style type="text/css">
	.st0{fill-rule:evenodd;clip-rule:evenodd;fill:#EEEEEF;}
	.st1{fill-rule:evenodd;clip-rule:evenodd;fill:#FFFFFF;}
	.st2{fill:#FFFFFF;}
	.st3{font-family:'Quentin_Pro-Regular';}
	.st4{font-size:82.884px;}
	.st5{font-family:'Montserrat-ExtraBold';}
	.st6{font-size:15.5939px;}
</style>
<g>
	<g>
		<path class="st0" d="M124.05,33.25c0,7.15,2.05,13.83,5.58,19.48c0.89,1.42,1.88,2.78,2.96,4.07c1.4,1.68,2.96,3.23,4.64,4.64
			c1.28,1.07,2.64,2.06,4.07,2.96c5.65-3.54,12.32-5.59,19.48-5.59c-7,0-13.34-2.81-17.95-7.37c-0.08-0.08-0.15-0.15-0.23-0.23
			c-4.56-4.61-7.37-10.95-7.37-17.95c0-7.11,2.91-13.55,7.6-18.18c-1.47-3.57-3.35-6.92-5.59-10c-2.96,2.48-5.53,5.42-7.59,8.7
			C126.1,19.42,124.05,26.1,124.05,33.25L124.05,33.25z M146.39,33.25c0,7.94,6.44,14.38,14.38,14.38c7.94,0,14.38-6.44,14.38-14.38
			c0-7.94-6.44-14.38-14.38-14.38C152.83,18.87,146.39,25.31,146.39,33.25L146.39,33.25z"/>
		<path class="st1" d="M160.77,58.8c-7.15,0-13.83,2.05-19.48,5.59c-4.71,2.95-8.71,6.95-11.66,11.66
			c3.54,5.65,5.59,12.32,5.59,19.48c0-14.11,11.44-25.55,25.55-25.55c7.11,0,13.55,2.91,18.18,7.6c3.57-1.47,6.92-3.35,10-5.59
			C181.96,63.62,171.7,58.8,160.77,58.8L160.77,58.8z M160.77,81.14c-7.94,0-14.38,6.44-14.38,14.38c0,7.94,6.44,14.38,14.38,14.38
			c7.94,0,14.38-6.44,14.38-14.38C175.15,87.58,168.71,81.14,160.77,81.14L160.77,81.14z"/>
		<path class="st0" d="M135.22,95.53c0-7.15-2.05-13.83-5.59-19.48c-2.95-4.71-6.95-8.71-11.66-11.66
			c-5.65,3.54-12.32,5.59-19.48,5.59c23,0,33.98,27.9,17.95,43.73c1.47,3.57,3.35,6.92,5.59,10
			C130.4,116.71,135.22,106.45,135.22,95.53L135.22,95.53z M112.88,95.53c0-7.94-6.44-14.38-14.38-14.38
			c-7.94,0-14.38,6.44-14.38,14.38c0,7.94,6.44,14.38,14.38,14.38C106.44,109.91,112.88,103.47,112.88,95.53L112.88,95.53z"/>
		<path class="st1" d="M98.5,47.63c7.94,0,14.38-6.44,14.38-14.38c0-7.94-6.44-14.38-14.38-14.38c-7.94,0-14.38,6.44-14.38,14.38
			C84.12,41.2,90.56,47.63,98.5,47.63L98.5,47.63z M126.68,56.8c1.07-1.28,2.06-2.64,2.96-4.07c-3.54-5.65-5.58-12.32-5.58-19.48
			c0,7-2.81,13.34-7.37,17.95c-0.08,0.08-0.15,0.15-0.23,0.23c-4.61,4.56-10.95,7.37-17.95,7.37c-7.11,0-13.55-2.91-18.18-7.6
			c-3.57,1.47-6.92,3.35-10,5.59c2.48,2.96,5.42,5.53,8.7,7.59c5.65,3.54,12.32,5.59,19.48,5.59c7.15,0,13.83-2.05,19.48-5.59
			c1.42-0.89,2.78-1.88,4.07-2.96C123.72,60.03,125.27,58.48,126.68,56.8L126.68,56.8z"/>
	</g>
	<g>
		<text transform="matrix(1 0 0 1 196.0928 87.7726)" class="st2 st3 st4">help</text>
	</g>
	<g>
		<text transform="matrix(1 0 0 1 311.876 103.2775)" class="st2 st5 st6">a Ong</text>
	</g>
</g>
</svg>
