<?xml version="1.0" encoding="utf-8"?>
<!-- Generator: Adobe Illustrator 25.0.0, SVG Export Plug-In . SVG Version: 6.00 Build 0)  -->
<svg version="1.1" id="Camada_1" xmlns="http://www.w3.org/2000/svg" xmlns:xlink="http://www.w3.org/1999/xlink" x="0px" y="0px"
	 viewBox="0 0 1000 1000" style="enable-background:new 0 0 1000 1000;" xml:space="preserve">
<style type="text/css">
	.st0{fill-rule:evenodd;clip-rule:evenodd;fill:#25A3A8;}
	.st1{fill-rule:evenodd;clip-rule:evenodd;fill:#33B7C3;}
	.st2{fill:#33B7C3;}
	.st3{font-family:'Quentin_Pro-Regular';}
	.st4{font-size:231.3172px;}
	.st5{font-family:'Montserrat-ExtraBold';}
	.st6{font-size:43.5203px;}
</style>
<g>
	<path class="st0" d="M496.94,257.33c0,21.82,6.24,42.19,17.04,59.41c2.72,4.34,5.74,8.49,9.01,12.41
		c4.28,5.12,9.02,9.85,14.14,14.14c3.92,3.28,8.06,6.29,12.41,9.01c17.22-10.79,37.58-17.04,59.41-17.04
		c-21.34,0-40.68-8.58-54.76-22.48c-0.23-0.23-0.47-0.46-0.7-0.7c-13.9-14.07-22.48-33.41-22.48-54.76
		c0-21.7,8.87-41.33,23.18-55.45c-4.47-10.89-10.22-21.12-17.06-30.5c-9.04,7.56-16.87,16.52-23.15,26.55
		C503.18,215.14,496.94,235.51,496.94,257.33L496.94,257.33z M565.08,257.33c0,24.22,19.64,43.86,43.86,43.86
		c24.22,0,43.86-19.64,43.86-43.86c0-24.22-19.64-43.86-43.86-43.86C584.72,213.47,565.08,233.1,565.08,257.33L565.08,257.33z"/>
	<path class="st1" d="M608.94,335.26c-21.82,0-42.19,6.24-59.41,17.04c-14.37,9.01-26.55,21.19-35.56,35.56
		c10.79,17.22,17.04,37.58,17.04,59.41c0-43.04,34.89-77.93,77.93-77.93c21.7,0,41.32,8.87,55.45,23.18
		c10.89-4.47,21.12-10.22,30.5-17.06C673.57,349.95,642.27,335.26,608.94,335.26L608.94,335.26z M608.94,403.4
		c-24.22,0-43.86,19.64-43.86,43.86c0,24.22,19.64,43.86,43.86,43.86c24.22,0,43.86-19.64,43.86-43.86
		C652.8,423.04,633.17,403.4,608.94,403.4L608.94,403.4z"/>
	<path class="st0" d="M531.01,447.26c0-21.82-6.24-42.19-17.04-59.41c-9-14.36-21.2-26.55-35.56-35.56
		c-17.22,10.79-37.58,17.04-59.41,17.04c70.17,0,103.64,85.11,54.76,133.39c4.47,10.89,10.22,21.12,17.06,30.5
		C516.32,511.89,531.01,480.59,531.01,447.26L531.01,447.26z M462.87,447.26c0-24.22-19.64-43.86-43.86-43.86
		c-24.22,0-43.86,19.64-43.86,43.86c0,24.22,19.64,43.86,43.86,43.86C443.23,491.13,462.87,471.49,462.87,447.26L462.87,447.26z"/>
	<path class="st1" d="M419.01,301.19c24.22,0,43.86-19.64,43.86-43.86c0-24.22-19.64-43.86-43.86-43.86
		c-24.22,0-43.86,19.64-43.86,43.86C375.14,281.55,394.78,301.19,419.01,301.19L419.01,301.19z M504.96,329.14
		c3.28-3.92,6.29-8.06,9.01-12.41c-10.79-17.22-17.04-37.58-17.04-59.41c0,21.34-8.58,40.68-22.48,54.76
		c-0.23,0.23-0.46,0.47-0.7,0.7c-14.07,13.9-33.41,22.48-54.76,22.48c-21.7,0-41.33-8.87-55.45-23.18
		c-10.89,4.47-21.12,10.22-30.5,17.06c7.56,9.04,16.52,16.87,26.55,23.15c17.22,10.79,37.58,17.04,59.41,17.04
		c21.82,0,42.19-6.24,59.41-17.04c4.35-2.72,8.49-5.74,12.41-9.01C495.94,339,500.68,334.26,504.96,329.14L504.96,329.14z"/>
</g>
<g>
	<text transform="matrix(1 0 0 1 280.1145 718.8433)" class="st2 st3 st4">help</text>
</g>
<g>
	<text transform="matrix(1 0 0 1 441.8528 762.1226)" class="st2 st5 st6">a Ong</text>
</g>
</svg>
