<?xml version="1.0" encoding="utf-8"?>
<!-- Generator: Adobe Illustrator 25.0.0, SVG Export Plug-In . SVG Version: 6.00 Build 0)  -->
<svg version="1.1" id="Camada_1" xmlns="http://www.w3.org/2000/svg" xmlns:xlink="http://www.w3.org/1999/xlink" x="0px" y="0px"
	 viewBox="0 0 1000 1000" style="enable-background:new 0 0 1000 1000;" xml:space="preserve">
<style type="text/css">
	.st0{fill-rule:evenodd;clip-rule:evenodd;fill:#EEEEEF;}
	.st1{fill-rule:evenodd;clip-rule:evenodd;fill:#FFFFFF;}
	.st2{fill:#FFFFFF;}
	.st3{font-family:'Quentin_Pro-Regular';}
	.st4{font-size:234.0642px;}
	.st5{font-family:'Montserrat-ExtraBold';}
	.st6{font-size:44.0371px;}
</style>
<g>
	<g>
		<path class="st0" d="M252.74,412.07c0,20.2,5.78,39.06,15.77,55c2.52,4.02,5.31,7.86,8.35,11.49c3.97,4.74,8.35,9.12,13.09,13.09
			c3.63,3.03,7.46,5.82,11.49,8.35c15.94-9.99,34.8-15.77,55-15.77c-19.76,0-37.67-7.94-50.7-20.81c-0.22-0.21-0.43-0.43-0.65-0.65
			c-12.87-13.03-20.81-30.94-20.81-50.7c0-20.09,8.21-38.26,21.46-51.34c-4.14-10.08-9.46-19.55-15.79-28.24
			c-8.37,7-15.62,15.3-21.44,24.58C258.51,373.02,252.74,391.87,252.74,412.07L252.74,412.07z M315.82,412.07
			c0,22.43,18.18,40.61,40.61,40.61s40.61-18.18,40.61-40.61c0-22.43-18.18-40.61-40.61-40.61S315.82,389.65,315.82,412.07
			L315.82,412.07z"/>
		<path class="st1" d="M356.43,484.23c-20.2,0-39.06,5.78-55,15.77c-13.3,8.34-24.58,19.62-32.92,32.92
			c9.99,15.94,15.77,34.8,15.77,55c0-39.85,32.3-72.15,72.15-72.15c20.09,0,38.26,8.21,51.34,21.46
			c10.08-4.14,19.55-9.46,28.24-15.79C416.27,497.83,387.29,484.23,356.43,484.23L356.43,484.23z M356.43,547.32
			c-22.43,0-40.61,18.18-40.61,40.61c0,22.43,18.18,40.61,40.61,40.61s40.61-18.18,40.61-40.61
			C397.04,565.5,378.86,547.32,356.43,547.32L356.43,547.32z"/>
		<path class="st0" d="M284.28,587.93c0-20.2-5.78-39.06-15.77-55c-8.33-13.29-19.63-24.59-32.92-32.92
			c-15.94,9.99-34.8,15.77-55,15.77c64.96,0,95.96,78.8,50.7,123.5c4.14,10.08,9.46,19.55,15.79,28.24
			C270.68,647.76,284.28,618.78,284.28,587.93L284.28,587.93z M221.19,587.93c0-22.43-18.18-40.61-40.61-40.61
			c-22.43,0-40.61,18.18-40.61,40.61c0,22.43,18.18,40.61,40.61,40.61C203.01,628.54,221.19,610.35,221.19,587.93L221.19,587.93z"/>
		<path class="st1" d="M180.58,452.68c22.43,0,40.61-18.18,40.61-40.61c0-22.43-18.18-40.61-40.61-40.61
			c-22.43,0-40.61,18.18-40.61,40.61C139.97,434.5,158.15,452.68,180.58,452.68L180.58,452.68z M260.16,478.56
			c3.03-3.63,5.82-7.46,8.35-11.49c-9.99-15.94-15.77-34.8-15.77-55c0,19.76-7.94,37.66-20.81,50.7c-0.21,0.22-0.43,0.43-0.65,0.65
			c-13.03,12.87-30.94,20.81-50.7,20.81c-20.09,0-38.26-8.21-51.34-21.46c-10.08,4.14-19.55,9.46-28.24,15.79
			c7,8.37,15.29,15.62,24.58,21.44c15.94,9.99,34.8,15.77,55,15.77s39.06-5.78,55-15.77c4.02-2.52,7.86-5.31,11.49-8.35
			C251.81,487.69,256.2,483.31,260.16,478.56L260.16,478.56z"/>
	</g>
	<g>
		<text transform="matrix(1 0 0 1 456.1855 566.0322)" class="st2 st3 st4">help</text>
	</g>
	<g>
		<text transform="matrix(1 0 0 1 783.1582 609.8173)" class="st2 st5 st6">a Ong</text>
	</g>
</g>
</svg>
